<svg xmlns="http://www.w3.org/2000/svg" width="125.571" height="125.572" viewBox="0 0 125.571 125.572"><defs><style>.a{fill:#707070;}.b{fill:#f5f5f5;}</style></defs><g transform="translate(-1248 -3902)"><ellipse class="a" cx="62.786" cy="62.786" rx="62.786" ry="62.786" transform="translate(1248 3902)"/><g transform="translate(1268.342 3936.701)"><path class="b" d="M40.087,78.5v.25a9.218,9.218,0,0,0,.062,1.311,2.112,2.112,0,0,0,1,1.56A7.287,7.287,0,0,0,48.2,82c1.5-.749,1.872-1.935,1.5-3.62A2.452,2.452,0,0,0,48.263,76.7c-1.311-.624-2.621-1.248-3.994-1.81a28.8,28.8,0,0,1-6.428-3A14.342,14.342,0,0,1,35.281,69.7c-1.81-2.122-1.872-4.618-1.061-7.177a9.222,9.222,0,0,1,4.806-5.243A16.416,16.416,0,0,1,46.7,55.6a14.085,14.085,0,0,1,5.991,1.186,7.936,7.936,0,0,1,4.057,3.62,8.143,8.143,0,0,1,.562,4.868.646.646,0,0,1-.062.25H50.073v-.811A3.154,3.154,0,0,0,48.2,61.841a5.562,5.562,0,0,0-5.8.437,2.612,2.612,0,0,0-1.123,2.808,2.1,2.1,0,0,0,1.248,1.623q1.685.843,3.37,1.5c1.872.749,3.745,1.435,5.555,2.247A13.624,13.624,0,0,1,55,72.826a7.411,7.411,0,0,1,2.247,6.491,8.757,8.757,0,0,1-5.929,7.677,18.137,18.137,0,0,1-14.1-.187,10.5,10.5,0,0,1-2.122-1.248A6.221,6.221,0,0,1,32.6,80a10.2,10.2,0,0,1,.125-1.373,2.7,2.7,0,0,1,.062-.312h7.052C39.962,78.443,40.025,78.443,40.087,78.5Z" transform="translate(-32.594 -55.6)"/><path class="b" d="M138.806,88.23c1.311-8.675,2.621-17.413,3.932-26.15H134.5c.312-1.935.562-3.807.874-5.679h24.091c-.312,1.872-.562,3.745-.874,5.679h-8.426a3.361,3.361,0,0,0-.062.5c-.437,3.183-.936,6.366-1.435,9.549-.5,3.121-.936,6.241-1.435,9.362-.312,2.184-.624,4.306-1,6.491a1.269,1.269,0,0,1-.062.312h-7.177C138.931,88.23,138.994,88.23,138.806,88.23Z" transform="translate(-70.899 -55.901)"/><path class="b" d="M77.943,82c1.935,1.935,4.369,2.122,6.8,1.935A38.524,38.524,0,0,0,97.6,80.507c.624-.25,1.311-.562,1.935-.874s1.311-.624,1.935-.936,1.248-.624,1.872-1c.624-.312,1.248-.687,1.872-1.061s1.186-.687,1.81-1.061,1.186-.749,1.748-1.123,1.186-.811,1.748-1.186c.562-.437,1.123-.811,1.685-1.248l1.685-1.311c.562-.437,1.123-.936,1.623-1.373a9.6,9.6,0,0,0,.811-.749,4.713,4.713,0,0,1,.874-.687.218.218,0,0,0-.062.125c0,.062-.062.062-.062.125-.062.062-.062.187-.125.25-.062.187-.187.312-.25.5-.187.312-.374.624-.562.874-.374.562-.749,1.186-1.123,1.748s-.811,1.123-1.248,1.685-.874,1.061-1.311,1.56-.936,1-1.373,1.5c-.5.5-1,1-1.5,1.435a16.364,16.364,0,0,1-1.56,1.373c-.5.374-.936.811-1.435,1.186-1,.749-2,1.5-3,2.184a1.165,1.165,0,0,0-.25.187.835.835,0,0,0,.062.312c.562,3,1.061,5.991,1.623,8.987,0,.125.062.312.062.5H97.352a2.214,2.214,0,0,1-.062-.437c-.25-1.623-.5-3.308-.749-4.93a2.316,2.316,0,0,0-.125-.562,3.041,3.041,0,0,0-.437.187,45.59,45.59,0,0,1-12.045,3.682,19.232,19.232,0,0,1-7.552-.125,5.616,5.616,0,0,1-3.308-1.935l-.374-.5a5.264,5.264,0,0,1,.437-.5c1.5-1.685,3-3.308,4.494-4.993Z" transform="translate(-47.669 -60.223)"/><path class="b" d="M86.3,77.832c.749-1.56,1.5-3.121,2.184-4.618,2.621-5.492,5.243-10.984,7.8-16.477a4.157,4.157,0,0,1,.187-.437h7.989c.187.936.312,1.872.5,2.809.749,4.306,1.5,8.675,2.309,12.982a1.27,1.27,0,0,0,.062.312l-.25.125c-2.184.936-4.369,1.935-6.491,2.933-.062,0-.062,0-.187.062-.062-.374-.125-.749-.187-1.061-.062-.437-.125-.811-.187-1.248L99.843,71.9l-.187-1.311c-.062-.437-.125-.811-.187-1.248-.062-.374-.125-.687-.187-1.061-.062-.312-.062-.562-.125-.874-.062-.25-.187-1.061-.187-1.061a1.322,1.322,0,0,0-.187.437c-1.56,3.433-3.058,6.8-4.618,10.235-.062.125-.187.437-.187.437a2.215,2.215,0,0,1-.437.062,20.361,20.361,0,0,1-6.74.374A2.008,2.008,0,0,1,86.3,77.832Z" transform="translate(-52.781 -55.863)"/></g><g transform="translate(1265.225 3982.885)"><path class="b" d="M33.779,130.973v7.989H32.031v-7.989H27.6V129.6H38.21v1.373Z" transform="translate(-27.6 -129.6)"/><path class="b" d="M55.7,138.962V129.6h7.552a2.051,2.051,0,0,1,1.5.437,1.821,1.821,0,0,1,.437,1.373v2.122a1.821,1.821,0,0,1-.437,1.373,2.377,2.377,0,0,1-1.5.437H62l4.119,3.682H63.751l-3.745-3.682H57.448v3.682H55.7Zm6.74-7.989H57.448v3H62.44a1.287,1.287,0,0,0,.811-.187,1.084,1.084,0,0,0,.187-.749v-1.123a1.2,1.2,0,0,0-.187-.749A1.287,1.287,0,0,0,62.44,130.973Z" transform="translate(-38.162 -129.6)"/><path class="b" d="M82.5,138.962l5.43-9.362h1.623l5.555,9.362H93.172l-1.248-2.184H85.433l-1.186,2.184Zm3.682-3.557h4.993l-2.5-4.431Z" transform="translate(-48.236 -129.6)"/><path class="b" d="M115.467,138.962,110.1,129.6h1.872l4.182,7.552,3.994-7.552H121.9l-5.118,9.362Z" transform="translate(-58.611 -129.6)"/><path class="b" d="M139.9,138.962V129.6h9.424v1.373h-7.677v2.434h4.618v1.373h-4.618v2.809h7.739v1.373H139.9Z" transform="translate(-69.812 -129.6)"/><path class="b" d="M167.6,138.962V129.6h1.747v7.926h7.3v1.435Z" transform="translate(-80.224 -129.6)"/></g></g></svg>