<svg xmlns="http://www.w3.org/2000/svg" width="24" height="24" viewBox="0 0 24 24"><defs><style>.a{fill:#333;}</style></defs><path class="a" d="M1525.7,937.2c3.2,0,3.6,0,4.8.1,3.3.1,4.8,1.7,4.9,4.9.1,1.3.1,1.6.1,4.8s0,3.6-.1,4.8c-.1,3.2-1.7,4.8-4.9,4.9-1.3.1-1.6.1-4.8.1s-3.6,0-4.8-.1c-3.3-.1-4.8-1.7-4.9-4.9-.1-1.3-.1-1.6-.1-4.8s0-3.6.1-4.8c.1-3.2,1.7-4.8,4.9-4.9C1522.1,937.2,1522.5,937.2,1525.7,937.2Zm0-2.2c-3.3,0-3.7,0-4.9.1-4.4.2-6.8,2.6-7,7-.1,1.3-.1,1.7-.1,4.9s0,3.7.1,4.9c.2,4.4,2.6,6.8,7,7,1.3.1,1.7.1,4.9.1s3.7,0,4.9-.1c4.4-.2,6.8-2.6,7-7,.1-1.3.1-1.7.1-4.9s0-3.7-.1-4.9c-.2-4.4-2.6-6.8-7-7C1529.4,935,1529,935,1525.7,935Zm0,5.8a6.2,6.2,0,1,0,6.2,6.2A6.231,6.231,0,0,0,1525.7,940.8Zm0,10.2a4,4,0,1,1,4-4A4.012,4.012,0,0,1,1525.7,951Zm6.4-11.8a1.4,1.4,0,1,0,1.4,1.4A1.312,1.312,0,0,0,1532.1,939.2Z" transform="translate(-1513.7 -935)"/></svg>